<svg xmlns="http://www.w3.org/2000/svg" version="1.0" viewBox="0 0 352 137" id="svg40"><g transform="matrix(.1 0 0 -.1 0 137)" fill="#0096d9" ><path d="M662 1098c-7-7-35-11-68-9-49 2-60-1-84-24-15-14-37-27-49-28-11-1-21-5-21-9 0-5-12-13-27-19l-28-11 61-30c58-29 60-31 59-69-1-31-16-59-82-151-112-158-108-147-108-273 1-161-1-158 92-178 91-20 153-21 295-6 132 13 143 16 162 35 20 20 20 60 0 154-39 178-96 304-168 369-41 38-35 76 21 133l47 48-22 23c-12 13-22 31-22 40 0 20-40 23-58 5zm41-447c4-37-2-57-11-32-10 28-51 61-77 61-17 0-38-12-58-32l-32-33 58-5c73-6 75-25 2-25-46 0-55-3-55-17 0-15 9-18 55-18 30 0 55-4 55-10 0-5-25-10-55-10s-55-4-55-9c0-4 9-20 20-34 30-38 72-43 123-17 42 22 42 22 23 1-25-28-77-41-121-31-43 10-61 24-81 62-8 15-21 28-29 28s-15 5-15 10c0 6 7 10 15 10s15 9 15 21c0 11-4 17-10 14-18-11-11 10 9 27 10 9 23 22 27 30 21 35 59 49 126 47l66-2 5-36z" id="path4"/><path d="M1031 1068c13-67 11-222-3-236-9-9-9-12 0-12 7 0 12-13 12-28s-5-33-12-40c-9-9-1-12 37-12s46 3 37 12c-15 15-15 51 0 66 9 9 9 12 0 12-8 0-12 25-11 83 0 74 15 197 18 155 0-9 19-79 42-155s42-146 42-155c1-15 11-18 50-18 43 0 47 2 34 15-16 16-12 55 7 67 8 5 7 8-1 8-10 0-13 33-13 130 0 80 4 130 10 130s10 5 10 10c0 6-18 10-40 10-46 0-42 17-40-172 1-88-2-108-13-108-8 0-19 16-25 38-5 20-19 71-30 112s-23 87-26 103c-6 24-11 27-50 27h-43l8-42z" id="path6"/><path d="M1330 1096c4-6 12-64 16-129 6-109 5-119-12-132-15-11-16-14-4-15 8 0 23-14 32-30 21-37 57-52 117-48 41 3 49 7 70 41 13 20 31 37 40 37 13 0 13 2 0 13-12 10-14 36-11 134 3 103 6 123 20 126 9 3-14 5-53 5-38 0-62-2-52-5 16-4 18-19 16-155-1-133-3-152-20-169-26-26-36-24-54 10-11 21-15 69-17 178l-3 148-47 1c-32 0-44-3-38-10z" id="path8"/><path d="M2163 1102c-18-3-23-10-23-33 0-36 7-37 20-4 7 19 17 25 40 25h31l-3-131c-2-99-6-133-16-137-11-4-11-6-1-13 16-9 22-46 9-54-21-13-8-20 33-17 42 4 43 4 39 38-3 26-1 34 12 34 9 0 16 5 16 10 0 6-10 10-21 10-20 0-21 4-15 53 3 28 6 87 6 130 0 76 0 77 25 77 17 0 29-8 37-25 13-28 28-17 28 20 0 19-7 20-97 20-54 0-108-1-120-3z" id="path10"/><path d="M2417 1102c8-5 13-53 15-142 2-130 2-135-17-132-18 2-18 1-4-10 23-19 30-66 10-71-9-3 7-5 34-6l50-1-3 43c-3 30 1 47 12 56 13 11 17 7 31-26 9-21 17-46 18-55 1-13 10-18 34-18 38 0 38 1 17 42-13 25-14 32-2 39 10 7 9 9-3 9-10 0-23 16-33 39-15 38-14 42 10 95 23 51 24 57 10 90-8 19-23 39-34 45-23 12-164 15-145 3z" id="path12"/><path d="M2780 1100c0-5 7-10 16-10s14-6 12-12c-3-7-22-66-44-130-30-91-43-118-56-118-10 0-18-5-18-11 0-5 4-8 9-4 15 8 20-8 10-32-5-13-15-23-24-23-8 0-15-4-15-10s27-10 61-10c40 0 58 4 54 11-4 5-4 21-1 35 6 23 10 24 85 24 76 0 79-1 83-25 4-19 1-25-13-25-11 0-19-4-19-10 0-5 20-10 45-10s45 5 45 10c0 6-9 10-19 10-30 0-44 50-13 51 14 0 13 2-4 9-21 8-36 51-71 208l-18 82h-52c-29 0-53-4-53-10zm130-153c16-64 30-118 30-121 0-4-32-6-71-6-53 0-70 3-67 13 3 6 20 63 38 124 19 62 35 111 37 110 1-2 16-56 33-120z" id="path14"/><path d="M1663 1093c15-4 17-19 17-133 0-125-1-129-22-133l-23-4 23-2c18-1 22-7 22-35 0-24-5-36-17-39-10-3 26-5 80-6l97-1v35c0 43-8 45-21 5-9-24-17-30-40-30-26 0-29 3-29 35 0 28 4 35 19 35 11 0 22-6 24-12 3-7 5 1 5 17 0 17-2 24-5 18-2-7-13-13-24-13-21 0-20-8-22 157-2 86 1 103 13 103 22 0 35-11 53-45l16-30 1 43v42l-92-1c-51-1-85-3-75-6z" id="path16"/><path d="M1973 1090c-30-12-43-41-43-93 0-38 7-54 45-103 50-64 52-71 28-77-14-4-12-5 5-6 24-1 27-12 12-42-8-13-21-19-45-19-28 0-36 4-41 24-3 14-3 30 1 37 5 7 3 10-5 7-8-2-18-12-24-22-29-47 110-80 154-36 11 11 20 27 20 35s7 15 15 15 15 5 15 10c0 6-5 10-10 10-6 0-15 12-21 26-5 15-23 44-39 65-44 55-62 103-50 134 19 50 59 41 60-13 0-13 4-21 9-18 14 9 19 54 8 65-13 13-63 13-94 1z" id="path18"/><path d="M3123 1090c-12-5-29-23-38-41-24-46-12-92 42-158 41-51 43-56 27-68-17-12-16-13 4-13 24 0 27-11 12-41-8-13-21-19-45-19-28 0-36 4-41 24-3 14-3 30 1 37 5 7 3 10-5 7-8-2-18-12-24-21-32-50 109-83 154-35 11 12 20 28 20 35s7 13 15 13 15 5 15 10c0 6-7 10-15 10s-15 8-15 18c0 9-19 41-41 71-23 30-45 68-50 83-8 31 2 71 21 83 16 10 40-14 40-42 0-13 4-22 9-19 14 9 19 54 8 65-13 13-63 13-94 1z" id="path20"/><path d="M1435 650c-16-4-24-8-17-9 18-2 12-263-6-269-10-3-8-8 4-16 16-12 16-15 1-44l-15-32h56c47 0 53 2 40 12-21 16-13 72 8 64 7-3 16-1 19 4 4 6 1 10-5 10-7 0 0 14 15 31 91 109 95 224 7 248-41 12-63 12-107 1z" id="path22"/><path d="M1130 641c0-5 6-11 13-14 9-3 1-37-29-128-34-106-44-124-65-130-15-5-18-7-6-8 27-2 19-61-9-61-8 0-14-4-14-10 0-5 25-10 56-10 41 0 55 3 51 13-2 6-1 22 4 35 8 21 13 23 86 20 72-3 78-5 81-25 3-18-2-23-17-23-12 0-21-4-21-9s15-7 33-5c17 1 41 3 52 4 17 2 16 3-5 9-25 7-43 51-21 51 17 0 13 18-5 22-12 2-25 34-45 118-16 63-29 125-29 138 0 20-5 22-55 22-30 0-55-4-55-9zm129-162l28-107-45-6c-66-9-92-7-92 6 0 24 74 242 77 228 2-8 16-63 32-121z" id="path24"/><path d="M1648 642c8-6 14-50 19-135 6-120 5-127-13-128-17 0-17-1 2-9 12-5 24-20 28-35 11-44 107-71 157-45 10 6 26 24 34 40 9 17 22 30 30 30s15 5 15 10c0 6-6 10-12 10-10 0-12 30-10 125 3 109 5 125 20 126 16 0 16 1 0 7-22 9-114 2-100-7 13-8 16-57 13-200-3-89-6-106-24-124l-20-20-22 26c-19 21-23 39-25 104-1 43-3 107-5 143-1 36 2 71 7 78 8 9-3 12-48 12-34 0-54-4-46-8z" id="path26"/><path d="M1983 638c14-8 17-28 17-133 0-123 0-125-22-126h-23l23-10c19-7 23-15 20-41-2-20-8-32-15-31-7 2-13-2-13-7 0-6 38-10 95-10h95v38l-1 37-15-27c-8-16-21-28-29-28-7 0-20-3-29-6-13-5-16 1-16 30s4 36 19 36c11 0 22-6 24-12 3-7 6-1 6 13 1 23-2 26-24 21l-25-4v127c0 125 0 126 23 123 13-2 29-16 39-38l18-35v43c0 47 11 43-119 47-44 2-59 0-48-7z" id="path28"/><path d="M2311 636c-45-16-61-41-61-94 0-37 7-54 46-105 41-55 44-62 27-68-16-7-15-8 5-8 47-2 15-71-33-71-29 0-49 32-40 63l7 22-23-22-23-23 24-25c35-37 102-36 138 4 43 46 53 61 43 61-5 0-13 10-16 23-4 12-24 45-45 72-48 65-62 105-46 136 18 37 50 31 57-11l6-35 11 28c17 40 15 46-14 57-14 6-26 10-27 9-1 0-17-6-36-13z" id="path30"/><path d="M2460 612c0-37 6-37 24 0 7 14 22 24 39 26l29 3-3-133c-1-73-7-139-12-145-6-9-6-13 2-13 15 0 14-43-1-58-9-9-2-12 34-12h46l-5 39c-4 32-2 40 13 44 17 4 17 5 2 6-16 1-18 14-18 131v130h30c23 0 31-5 36-25 8-33 24-22 24 16v30l-120-2-120-1v-36z" id="path32"/><path d="M2820 640c0-5 7-10 16-10 18 0 19 4-34-152-30-89-40-108-57-109s-17-2-2-6c20-5 20-4 7-37-5-14-17-26-25-26-9 0-13-4-10-10 3-5 31-10 62-10 47 0 54 2 49 16-4 9-4 25-1 35 6 16 17 19 86 19 43 0 79-4 79-9s3-16 6-25c4-12 0-16-15-16-12 0-21-4-21-8 0-9 78-7 87 2 4 3-3 6-15 6s-22 4-22 9-3 16-6 25c-4 11-1 16 10 16 9 0 16 5 16 10 0 6-8 10-19 10-16 0-24 21-52 140l-33 140h-53c-29 0-53-4-53-10zm129-140c12-52 24-103 27-112 4-13-5-18-50-23-89-11-89-11-54 102 17 54 33 108 35 121 8 36 18 15 42-88z" id="path34"/><path d="M3183 639c-43-12-67-50-65-101 2-31 13-54 48-101 41-55 44-62 27-68-16-7-15-8 5-8 47-2 15-71-33-71-26 0-50 32-41 56 7 19-8 18-24-1-11-13-9-20 10-40 35-37 102-35 138 4 43 46 49 56 40 66-4 6-31 44-59 87-53 81-64 127-36 155 23 24 47 9 47-29 0-36 14-28 24 15 5 23 3 29-19 37-15 6-27 10-28 9-1 0-17-5-34-10z" id="path36"/></g></svg>